<?xml version="1.0" encoding="utf-8"?>
<!-- Generator: Adobe Illustrator 28.3.0, SVG Export Plug-In . SVG Version: 6.00 Build 0)  -->
<svg version="1.1" id="Layer_1" xmlns="http://www.w3.org/2000/svg" xmlns:xlink="http://www.w3.org/1999/xlink" x="0px" y="0px"
	 viewBox="0 0 128 128" style="enable-background:new 0 0 128 128;" xml:space="preserve">
<style type="text/css">
	.st0{fill:#EE2D2B;stroke:#231F20;stroke-width:2;stroke-miterlimit:10;}
</style>
<path class="st0" d="M56.3,3.3c11.1,3.2,31.3,22.4,19.9,49.1c-2.2,5.2-1.9,9.3,0,11.4c3,3.6,8.9,3.8,13.6-10.1
	c0.6-1.8,2.4-2.8,3.8-1.9c7.3,4.9,11.9,15.9,11.9,27.2c0,26.8-19.5,45.8-42.3,45.8S22.6,105.7,22.6,79c0-16.3,6.9-24.9,14.2-33.8
	c7.6-9.4,16.5-19.3,16.5-38.9C53.4,4.4,54.7,2.8,56.3,3.3z"/>
</svg>
